G04 #@! TF.GenerationSoftware,KiCad,Pcbnew,5.1.10*
G04 #@! TF.CreationDate,2021-10-22T12:48:28+02:00*
G04 #@! TF.ProjectId,rfid-breakout,72666964-2d62-4726-9561-6b6f75742e6b,rev?*
G04 #@! TF.SameCoordinates,Original*
G04 #@! TF.FileFunction,Legend,Bot*
G04 #@! TF.FilePolarity,Positive*
%FSLAX46Y46*%
G04 Gerber Fmt 4.6, Leading zero omitted, Abs format (unit mm)*
G04 Created by KiCad (PCBNEW 5.1.10) date 2021-10-22 12:48:28*
%MOMM*%
%LPD*%
G01*
G04 APERTURE LIST*
%ADD10C,0.200000*%
%ADD11C,0.010000*%
G04 APERTURE END LIST*
D10*
X155585714Y-104292857D02*
X155585714Y-103092857D01*
X155071428Y-104292857D02*
X155071428Y-103664285D01*
X155128571Y-103550000D01*
X155242857Y-103492857D01*
X155414285Y-103492857D01*
X155528571Y-103550000D01*
X155585714Y-103607142D01*
X154671428Y-103492857D02*
X154214285Y-103492857D01*
X154500000Y-103092857D02*
X154500000Y-104121428D01*
X154442857Y-104235714D01*
X154328571Y-104292857D01*
X154214285Y-104292857D01*
X153985714Y-103492857D02*
X153528571Y-103492857D01*
X153814285Y-103092857D02*
X153814285Y-104121428D01*
X153757142Y-104235714D01*
X153642857Y-104292857D01*
X153528571Y-104292857D01*
X153128571Y-103492857D02*
X153128571Y-104692857D01*
X153128571Y-103550000D02*
X153014285Y-103492857D01*
X152785714Y-103492857D01*
X152671428Y-103550000D01*
X152614285Y-103607142D01*
X152557142Y-103721428D01*
X152557142Y-104064285D01*
X152614285Y-104178571D01*
X152671428Y-104235714D01*
X152785714Y-104292857D01*
X153014285Y-104292857D01*
X153128571Y-104235714D01*
X152100000Y-104235714D02*
X151985714Y-104292857D01*
X151757142Y-104292857D01*
X151642857Y-104235714D01*
X151585714Y-104121428D01*
X151585714Y-104064285D01*
X151642857Y-103950000D01*
X151757142Y-103892857D01*
X151928571Y-103892857D01*
X152042857Y-103835714D01*
X152100000Y-103721428D01*
X152100000Y-103664285D01*
X152042857Y-103550000D01*
X151928571Y-103492857D01*
X151757142Y-103492857D01*
X151642857Y-103550000D01*
X151071428Y-104178571D02*
X151014285Y-104235714D01*
X151071428Y-104292857D01*
X151128571Y-104235714D01*
X151071428Y-104178571D01*
X151071428Y-104292857D01*
X151071428Y-103550000D02*
X151014285Y-103607142D01*
X151071428Y-103664285D01*
X151128571Y-103607142D01*
X151071428Y-103550000D01*
X151071428Y-103664285D01*
X149642857Y-103035714D02*
X150671428Y-104578571D01*
X148385714Y-103035714D02*
X149414285Y-104578571D01*
X147471428Y-103492857D02*
X147471428Y-104464285D01*
X147528571Y-104578571D01*
X147585714Y-104635714D01*
X147700000Y-104692857D01*
X147871428Y-104692857D01*
X147985714Y-104635714D01*
X147471428Y-104235714D02*
X147585714Y-104292857D01*
X147814285Y-104292857D01*
X147928571Y-104235714D01*
X147985714Y-104178571D01*
X148042857Y-104064285D01*
X148042857Y-103721428D01*
X147985714Y-103607142D01*
X147928571Y-103550000D01*
X147814285Y-103492857D01*
X147585714Y-103492857D01*
X147471428Y-103550000D01*
X146900000Y-104292857D02*
X146900000Y-103492857D01*
X146900000Y-103092857D02*
X146957142Y-103150000D01*
X146900000Y-103207142D01*
X146842857Y-103150000D01*
X146900000Y-103092857D01*
X146900000Y-103207142D01*
X146500000Y-103492857D02*
X146042857Y-103492857D01*
X146328571Y-103092857D02*
X146328571Y-104121428D01*
X146271428Y-104235714D01*
X146157142Y-104292857D01*
X146042857Y-104292857D01*
X145642857Y-104292857D02*
X145642857Y-103092857D01*
X145128571Y-104292857D02*
X145128571Y-103664285D01*
X145185714Y-103550000D01*
X145300000Y-103492857D01*
X145471428Y-103492857D01*
X145585714Y-103550000D01*
X145642857Y-103607142D01*
X144042857Y-103492857D02*
X144042857Y-104292857D01*
X144557142Y-103492857D02*
X144557142Y-104121428D01*
X144500000Y-104235714D01*
X144385714Y-104292857D01*
X144214285Y-104292857D01*
X144100000Y-104235714D01*
X144042857Y-104178571D01*
X143471428Y-104292857D02*
X143471428Y-103092857D01*
X143471428Y-103550000D02*
X143357142Y-103492857D01*
X143128571Y-103492857D01*
X143014285Y-103550000D01*
X142957142Y-103607142D01*
X142900000Y-103721428D01*
X142900000Y-104064285D01*
X142957142Y-104178571D01*
X143014285Y-104235714D01*
X143128571Y-104292857D01*
X143357142Y-104292857D01*
X143471428Y-104235714D01*
X142385714Y-104178571D02*
X142328571Y-104235714D01*
X142385714Y-104292857D01*
X142442857Y-104235714D01*
X142385714Y-104178571D01*
X142385714Y-104292857D01*
X141300000Y-104235714D02*
X141414285Y-104292857D01*
X141642857Y-104292857D01*
X141757142Y-104235714D01*
X141814285Y-104178571D01*
X141871428Y-104064285D01*
X141871428Y-103721428D01*
X141814285Y-103607142D01*
X141757142Y-103550000D01*
X141642857Y-103492857D01*
X141414285Y-103492857D01*
X141300000Y-103550000D01*
X140614285Y-104292857D02*
X140728571Y-104235714D01*
X140785714Y-104178571D01*
X140842857Y-104064285D01*
X140842857Y-103721428D01*
X140785714Y-103607142D01*
X140728571Y-103550000D01*
X140614285Y-103492857D01*
X140442857Y-103492857D01*
X140328571Y-103550000D01*
X140271428Y-103607142D01*
X140214285Y-103721428D01*
X140214285Y-104064285D01*
X140271428Y-104178571D01*
X140328571Y-104235714D01*
X140442857Y-104292857D01*
X140614285Y-104292857D01*
X139700000Y-104292857D02*
X139700000Y-103492857D01*
X139700000Y-103607142D02*
X139642857Y-103550000D01*
X139528571Y-103492857D01*
X139357142Y-103492857D01*
X139242857Y-103550000D01*
X139185714Y-103664285D01*
X139185714Y-104292857D01*
X139185714Y-103664285D02*
X139128571Y-103550000D01*
X139014285Y-103492857D01*
X138842857Y-103492857D01*
X138728571Y-103550000D01*
X138671428Y-103664285D01*
X138671428Y-104292857D01*
X137242857Y-103035714D02*
X138271428Y-104578571D01*
X158042857Y-106235714D02*
X157871428Y-106292857D01*
X157585714Y-106292857D01*
X157471428Y-106235714D01*
X157414285Y-106178571D01*
X157357142Y-106064285D01*
X157357142Y-105950000D01*
X157414285Y-105835714D01*
X157471428Y-105778571D01*
X157585714Y-105721428D01*
X157814285Y-105664285D01*
X157928571Y-105607142D01*
X157985714Y-105550000D01*
X158042857Y-105435714D01*
X158042857Y-105321428D01*
X157985714Y-105207142D01*
X157928571Y-105150000D01*
X157814285Y-105092857D01*
X157528571Y-105092857D01*
X157357142Y-105150000D01*
X157014285Y-105492857D02*
X156557142Y-105492857D01*
X156842857Y-105092857D02*
X156842857Y-106121428D01*
X156785714Y-106235714D01*
X156671428Y-106292857D01*
X156557142Y-106292857D01*
X155642857Y-106292857D02*
X155642857Y-105664285D01*
X155700000Y-105550000D01*
X155814285Y-105492857D01*
X156042857Y-105492857D01*
X156157142Y-105550000D01*
X155642857Y-106235714D02*
X155757142Y-106292857D01*
X156042857Y-106292857D01*
X156157142Y-106235714D01*
X156214285Y-106121428D01*
X156214285Y-106007142D01*
X156157142Y-105892857D01*
X156042857Y-105835714D01*
X155757142Y-105835714D01*
X155642857Y-105778571D01*
X155071428Y-106292857D02*
X155071428Y-105492857D01*
X155071428Y-105721428D02*
X155014285Y-105607142D01*
X154957142Y-105550000D01*
X154842857Y-105492857D01*
X154728571Y-105492857D01*
X153700000Y-105150000D02*
X153814285Y-105092857D01*
X153985714Y-105092857D01*
X154157142Y-105150000D01*
X154271428Y-105264285D01*
X154328571Y-105378571D01*
X154385714Y-105607142D01*
X154385714Y-105778571D01*
X154328571Y-106007142D01*
X154271428Y-106121428D01*
X154157142Y-106235714D01*
X153985714Y-106292857D01*
X153871428Y-106292857D01*
X153700000Y-106235714D01*
X153642857Y-106178571D01*
X153642857Y-105778571D01*
X153871428Y-105778571D01*
X152614285Y-106292857D02*
X152614285Y-105664285D01*
X152671428Y-105550000D01*
X152785714Y-105492857D01*
X153014285Y-105492857D01*
X153128571Y-105550000D01*
X152614285Y-106235714D02*
X152728571Y-106292857D01*
X153014285Y-106292857D01*
X153128571Y-106235714D01*
X153185714Y-106121428D01*
X153185714Y-106007142D01*
X153128571Y-105892857D01*
X153014285Y-105835714D01*
X152728571Y-105835714D01*
X152614285Y-105778571D01*
X152214285Y-105492857D02*
X151757142Y-105492857D01*
X152042857Y-105092857D02*
X152042857Y-106121428D01*
X151985714Y-106235714D01*
X151871428Y-106292857D01*
X151757142Y-106292857D01*
X150900000Y-106235714D02*
X151014285Y-106292857D01*
X151242857Y-106292857D01*
X151357142Y-106235714D01*
X151414285Y-106121428D01*
X151414285Y-105664285D01*
X151357142Y-105550000D01*
X151242857Y-105492857D01*
X151014285Y-105492857D01*
X150900000Y-105550000D01*
X150842857Y-105664285D01*
X150842857Y-105778571D01*
X151414285Y-105892857D01*
X150100000Y-105092857D02*
X149985714Y-105092857D01*
X149871428Y-105150000D01*
X149814285Y-105207142D01*
X149757142Y-105321428D01*
X149700000Y-105550000D01*
X149700000Y-105835714D01*
X149757142Y-106064285D01*
X149814285Y-106178571D01*
X149871428Y-106235714D01*
X149985714Y-106292857D01*
X150100000Y-106292857D01*
X150214285Y-106235714D01*
X150271428Y-106178571D01*
X150328571Y-106064285D01*
X150385714Y-105835714D01*
X150385714Y-105550000D01*
X150328571Y-105321428D01*
X150271428Y-105207142D01*
X150214285Y-105150000D01*
X150100000Y-105092857D01*
X148557142Y-106292857D02*
X149242857Y-106292857D01*
X148900000Y-106292857D02*
X148900000Y-105092857D01*
X149014285Y-105264285D01*
X149128571Y-105378571D01*
X149242857Y-105435714D01*
X147185714Y-105035714D02*
X148214285Y-106578571D01*
X146785714Y-106292857D02*
X146785714Y-105492857D01*
X146785714Y-105721428D02*
X146728571Y-105607142D01*
X146671428Y-105550000D01*
X146557142Y-105492857D01*
X146442857Y-105492857D01*
X146214285Y-105492857D02*
X145757142Y-105492857D01*
X146042857Y-106292857D02*
X146042857Y-105264285D01*
X145985714Y-105150000D01*
X145871428Y-105092857D01*
X145757142Y-105092857D01*
X145357142Y-106292857D02*
X145357142Y-105492857D01*
X145357142Y-105092857D02*
X145414285Y-105150000D01*
X145357142Y-105207142D01*
X145300000Y-105150000D01*
X145357142Y-105092857D01*
X145357142Y-105207142D01*
X144271428Y-106292857D02*
X144271428Y-105092857D01*
X144271428Y-106235714D02*
X144385714Y-106292857D01*
X144614285Y-106292857D01*
X144728571Y-106235714D01*
X144785714Y-106178571D01*
X144842857Y-106064285D01*
X144842857Y-105721428D01*
X144785714Y-105607142D01*
X144728571Y-105550000D01*
X144614285Y-105492857D01*
X144385714Y-105492857D01*
X144271428Y-105550000D01*
X143700000Y-105835714D02*
X142785714Y-105835714D01*
X142214285Y-106292857D02*
X142214285Y-105092857D01*
X142214285Y-105550000D02*
X142100000Y-105492857D01*
X141871428Y-105492857D01*
X141757142Y-105550000D01*
X141700000Y-105607142D01*
X141642857Y-105721428D01*
X141642857Y-106064285D01*
X141700000Y-106178571D01*
X141757142Y-106235714D01*
X141871428Y-106292857D01*
X142100000Y-106292857D01*
X142214285Y-106235714D01*
X141128571Y-106292857D02*
X141128571Y-105492857D01*
X141128571Y-105721428D02*
X141071428Y-105607142D01*
X141014285Y-105550000D01*
X140900000Y-105492857D01*
X140785714Y-105492857D01*
X139928571Y-106235714D02*
X140042857Y-106292857D01*
X140271428Y-106292857D01*
X140385714Y-106235714D01*
X140442857Y-106121428D01*
X140442857Y-105664285D01*
X140385714Y-105550000D01*
X140271428Y-105492857D01*
X140042857Y-105492857D01*
X139928571Y-105550000D01*
X139871428Y-105664285D01*
X139871428Y-105778571D01*
X140442857Y-105892857D01*
X138842857Y-106292857D02*
X138842857Y-105664285D01*
X138900000Y-105550000D01*
X139014285Y-105492857D01*
X139242857Y-105492857D01*
X139357142Y-105550000D01*
X138842857Y-106235714D02*
X138957142Y-106292857D01*
X139242857Y-106292857D01*
X139357142Y-106235714D01*
X139414285Y-106121428D01*
X139414285Y-106007142D01*
X139357142Y-105892857D01*
X139242857Y-105835714D01*
X138957142Y-105835714D01*
X138842857Y-105778571D01*
X138271428Y-106292857D02*
X138271428Y-105092857D01*
X138157142Y-105835714D02*
X137814285Y-106292857D01*
X137814285Y-105492857D02*
X138271428Y-105950000D01*
X137128571Y-106292857D02*
X137242857Y-106235714D01*
X137300000Y-106178571D01*
X137357142Y-106064285D01*
X137357142Y-105721428D01*
X137300000Y-105607142D01*
X137242857Y-105550000D01*
X137128571Y-105492857D01*
X136957142Y-105492857D01*
X136842857Y-105550000D01*
X136785714Y-105607142D01*
X136728571Y-105721428D01*
X136728571Y-106064285D01*
X136785714Y-106178571D01*
X136842857Y-106235714D01*
X136957142Y-106292857D01*
X137128571Y-106292857D01*
X135700000Y-105492857D02*
X135700000Y-106292857D01*
X136214285Y-105492857D02*
X136214285Y-106121428D01*
X136157142Y-106235714D01*
X136042857Y-106292857D01*
X135871428Y-106292857D01*
X135757142Y-106235714D01*
X135700000Y-106178571D01*
X135300000Y-105492857D02*
X134842857Y-105492857D01*
X135128571Y-105092857D02*
X135128571Y-106121428D01*
X135071428Y-106235714D01*
X134957142Y-106292857D01*
X134842857Y-106292857D01*
D11*
G36*
X151453100Y-99736903D02*
G01*
X151341550Y-99792522D01*
X151243092Y-99894931D01*
X151215977Y-99932864D01*
X151186438Y-99982500D01*
X151167272Y-100036412D01*
X151156307Y-100108364D01*
X151151371Y-100212122D01*
X151150287Y-100349101D01*
X151155182Y-100536815D01*
X151172196Y-100677758D01*
X151204823Y-100782908D01*
X151256558Y-100863243D01*
X151330896Y-100929741D01*
X151336358Y-100933678D01*
X151409620Y-100973953D01*
X151497840Y-100993880D01*
X151610038Y-100998793D01*
X151792433Y-100998793D01*
X151792509Y-101175857D01*
X151794207Y-101274470D01*
X151804550Y-101332314D01*
X151831578Y-101367006D01*
X151883332Y-101396164D01*
X151895761Y-101402121D01*
X151953923Y-101430039D01*
X151998956Y-101447672D01*
X152032441Y-101449194D01*
X152055962Y-101428781D01*
X152071100Y-101380607D01*
X152079437Y-101298846D01*
X152082556Y-101177672D01*
X152082040Y-101011260D01*
X152079471Y-100793785D01*
X152078668Y-100728736D01*
X152075778Y-100504502D01*
X152073188Y-100357821D01*
X151792586Y-100357821D01*
X151791009Y-100482326D01*
X151784000Y-100563787D01*
X151768142Y-100617515D01*
X151740019Y-100658823D01*
X151720925Y-100678971D01*
X151642865Y-100737921D01*
X151573753Y-100742720D01*
X151502440Y-100694038D01*
X151500632Y-100692241D01*
X151471617Y-100654618D01*
X151453967Y-100603484D01*
X151445064Y-100524738D01*
X151442291Y-100404276D01*
X151442241Y-100377588D01*
X151448942Y-100211583D01*
X151470752Y-100096505D01*
X151510235Y-100026254D01*
X151569956Y-99994729D01*
X151604472Y-99991552D01*
X151686389Y-100006460D01*
X151742579Y-100055548D01*
X151776402Y-100145362D01*
X151791220Y-100282445D01*
X151792586Y-100357821D01*
X152073188Y-100357821D01*
X152072713Y-100330952D01*
X152068753Y-100200382D01*
X152063174Y-100105087D01*
X152055254Y-100037364D01*
X152044269Y-99989507D01*
X152029499Y-99953813D01*
X152010218Y-99922578D01*
X152001951Y-99910824D01*
X151892288Y-99799797D01*
X151753635Y-99736847D01*
X151593246Y-99719297D01*
X151453100Y-99736903D01*
G37*
X151453100Y-99736903D02*
X151341550Y-99792522D01*
X151243092Y-99894931D01*
X151215977Y-99932864D01*
X151186438Y-99982500D01*
X151167272Y-100036412D01*
X151156307Y-100108364D01*
X151151371Y-100212122D01*
X151150287Y-100349101D01*
X151155182Y-100536815D01*
X151172196Y-100677758D01*
X151204823Y-100782908D01*
X151256558Y-100863243D01*
X151330896Y-100929741D01*
X151336358Y-100933678D01*
X151409620Y-100973953D01*
X151497840Y-100993880D01*
X151610038Y-100998793D01*
X151792433Y-100998793D01*
X151792509Y-101175857D01*
X151794207Y-101274470D01*
X151804550Y-101332314D01*
X151831578Y-101367006D01*
X151883332Y-101396164D01*
X151895761Y-101402121D01*
X151953923Y-101430039D01*
X151998956Y-101447672D01*
X152032441Y-101449194D01*
X152055962Y-101428781D01*
X152071100Y-101380607D01*
X152079437Y-101298846D01*
X152082556Y-101177672D01*
X152082040Y-101011260D01*
X152079471Y-100793785D01*
X152078668Y-100728736D01*
X152075778Y-100504502D01*
X152073188Y-100357821D01*
X151792586Y-100357821D01*
X151791009Y-100482326D01*
X151784000Y-100563787D01*
X151768142Y-100617515D01*
X151740019Y-100658823D01*
X151720925Y-100678971D01*
X151642865Y-100737921D01*
X151573753Y-100742720D01*
X151502440Y-100694038D01*
X151500632Y-100692241D01*
X151471617Y-100654618D01*
X151453967Y-100603484D01*
X151445064Y-100524738D01*
X151442291Y-100404276D01*
X151442241Y-100377588D01*
X151448942Y-100211583D01*
X151470752Y-100096505D01*
X151510235Y-100026254D01*
X151569956Y-99994729D01*
X151604472Y-99991552D01*
X151686389Y-100006460D01*
X151742579Y-100055548D01*
X151776402Y-100145362D01*
X151791220Y-100282445D01*
X151792586Y-100357821D01*
X152073188Y-100357821D01*
X152072713Y-100330952D01*
X152068753Y-100200382D01*
X152063174Y-100105087D01*
X152055254Y-100037364D01*
X152044269Y-99989507D01*
X152029499Y-99953813D01*
X152010218Y-99922578D01*
X152001951Y-99910824D01*
X151892288Y-99799797D01*
X151753635Y-99736847D01*
X151593246Y-99719297D01*
X151453100Y-99736903D01*
G36*
X149207571Y-99752719D02*
G01*
X149113877Y-99806914D01*
X149048736Y-99860707D01*
X149001093Y-99917066D01*
X148968272Y-99985987D01*
X148947594Y-100077468D01*
X148936380Y-100201506D01*
X148931951Y-100368098D01*
X148931437Y-100487851D01*
X148931437Y-100928659D01*
X149055517Y-100984283D01*
X149179598Y-101039907D01*
X149194195Y-100557095D01*
X149200227Y-100376779D01*
X149206555Y-100245901D01*
X149214394Y-100155511D01*
X149224963Y-100096664D01*
X149239477Y-100060413D01*
X149259152Y-100037810D01*
X149265465Y-100032917D01*
X149361112Y-99994706D01*
X149457793Y-100009827D01*
X149515345Y-100049943D01*
X149538755Y-100078370D01*
X149554961Y-100115672D01*
X149565259Y-100172223D01*
X149570951Y-100258394D01*
X149573336Y-100384558D01*
X149573736Y-100516042D01*
X149573814Y-100680999D01*
X149576639Y-100797761D01*
X149586093Y-100876510D01*
X149606060Y-100927431D01*
X149640424Y-100960706D01*
X149693068Y-100986520D01*
X149763383Y-101013344D01*
X149840180Y-101042542D01*
X149831038Y-100524346D01*
X149827357Y-100337539D01*
X149823050Y-100199490D01*
X149816877Y-100100568D01*
X149807598Y-100031145D01*
X149793973Y-99981590D01*
X149774761Y-99942273D01*
X149751598Y-99907584D01*
X149639848Y-99796770D01*
X149503487Y-99732689D01*
X149355175Y-99717339D01*
X149207571Y-99752719D01*
G37*
X149207571Y-99752719D02*
X149113877Y-99806914D01*
X149048736Y-99860707D01*
X149001093Y-99917066D01*
X148968272Y-99985987D01*
X148947594Y-100077468D01*
X148936380Y-100201506D01*
X148931951Y-100368098D01*
X148931437Y-100487851D01*
X148931437Y-100928659D01*
X149055517Y-100984283D01*
X149179598Y-101039907D01*
X149194195Y-100557095D01*
X149200227Y-100376779D01*
X149206555Y-100245901D01*
X149214394Y-100155511D01*
X149224963Y-100096664D01*
X149239477Y-100060413D01*
X149259152Y-100037810D01*
X149265465Y-100032917D01*
X149361112Y-99994706D01*
X149457793Y-100009827D01*
X149515345Y-100049943D01*
X149538755Y-100078370D01*
X149554961Y-100115672D01*
X149565259Y-100172223D01*
X149570951Y-100258394D01*
X149573336Y-100384558D01*
X149573736Y-100516042D01*
X149573814Y-100680999D01*
X149576639Y-100797761D01*
X149586093Y-100876510D01*
X149606060Y-100927431D01*
X149640424Y-100960706D01*
X149693068Y-100986520D01*
X149763383Y-101013344D01*
X149840180Y-101042542D01*
X149831038Y-100524346D01*
X149827357Y-100337539D01*
X149823050Y-100199490D01*
X149816877Y-100100568D01*
X149807598Y-100031145D01*
X149793973Y-99981590D01*
X149774761Y-99942273D01*
X149751598Y-99907584D01*
X149639848Y-99796770D01*
X149503487Y-99732689D01*
X149355175Y-99717339D01*
X149207571Y-99752719D01*
G36*
X152576779Y-99741015D02*
G01*
X152439939Y-99812968D01*
X152338949Y-99928766D01*
X152303075Y-100003213D01*
X152275161Y-100114992D01*
X152260871Y-100256227D01*
X152259516Y-100410371D01*
X152270405Y-100560879D01*
X152292847Y-100691205D01*
X152326150Y-100784803D01*
X152336385Y-100800922D01*
X152457618Y-100921249D01*
X152601613Y-100993317D01*
X152757861Y-101014408D01*
X152915852Y-100981802D01*
X152959820Y-100962253D01*
X153045444Y-100902012D01*
X153120592Y-100822135D01*
X153127694Y-100812004D01*
X153156561Y-100763181D01*
X153175643Y-100710990D01*
X153186916Y-100642285D01*
X153192355Y-100543918D01*
X153193938Y-100402744D01*
X153193965Y-100371092D01*
X153193893Y-100361019D01*
X152902011Y-100361019D01*
X152900313Y-100494256D01*
X152893628Y-100582674D01*
X152879575Y-100639785D01*
X152855771Y-100679102D01*
X152843621Y-100692241D01*
X152773764Y-100742172D01*
X152705941Y-100739895D01*
X152637365Y-100696584D01*
X152596465Y-100650346D01*
X152572242Y-100582857D01*
X152558639Y-100476433D01*
X152557706Y-100464020D01*
X152555384Y-100271147D01*
X152579650Y-100127900D01*
X152630176Y-100035160D01*
X152706632Y-99993807D01*
X152733924Y-99991552D01*
X152805589Y-100002893D01*
X152854610Y-100042184D01*
X152884582Y-100117326D01*
X152899101Y-100236222D01*
X152902011Y-100361019D01*
X153193893Y-100361019D01*
X153192878Y-100220659D01*
X153188312Y-100115549D01*
X153178312Y-100042714D01*
X153160921Y-99989108D01*
X153134184Y-99941681D01*
X153128276Y-99932864D01*
X153028968Y-99814007D01*
X152920758Y-99745008D01*
X152789019Y-99717619D01*
X152744283Y-99716281D01*
X152576779Y-99741015D01*
G37*
X152576779Y-99741015D02*
X152439939Y-99812968D01*
X152338949Y-99928766D01*
X152303075Y-100003213D01*
X152275161Y-100114992D01*
X152260871Y-100256227D01*
X152259516Y-100410371D01*
X152270405Y-100560879D01*
X152292847Y-100691205D01*
X152326150Y-100784803D01*
X152336385Y-100800922D01*
X152457618Y-100921249D01*
X152601613Y-100993317D01*
X152757861Y-101014408D01*
X152915852Y-100981802D01*
X152959820Y-100962253D01*
X153045444Y-100902012D01*
X153120592Y-100822135D01*
X153127694Y-100812004D01*
X153156561Y-100763181D01*
X153175643Y-100710990D01*
X153186916Y-100642285D01*
X153192355Y-100543918D01*
X153193938Y-100402744D01*
X153193965Y-100371092D01*
X153193893Y-100361019D01*
X152902011Y-100361019D01*
X152900313Y-100494256D01*
X152893628Y-100582674D01*
X152879575Y-100639785D01*
X152855771Y-100679102D01*
X152843621Y-100692241D01*
X152773764Y-100742172D01*
X152705941Y-100739895D01*
X152637365Y-100696584D01*
X152596465Y-100650346D01*
X152572242Y-100582857D01*
X152558639Y-100476433D01*
X152557706Y-100464020D01*
X152555384Y-100271147D01*
X152579650Y-100127900D01*
X152630176Y-100035160D01*
X152706632Y-99993807D01*
X152733924Y-99991552D01*
X152805589Y-100002893D01*
X152854610Y-100042184D01*
X152884582Y-100117326D01*
X152899101Y-100236222D01*
X152902011Y-100361019D01*
X153193893Y-100361019D01*
X153192878Y-100220659D01*
X153188312Y-100115549D01*
X153178312Y-100042714D01*
X153160921Y-99989108D01*
X153134184Y-99941681D01*
X153128276Y-99932864D01*
X153028968Y-99814007D01*
X152920758Y-99745008D01*
X152789019Y-99717619D01*
X152744283Y-99716281D01*
X152576779Y-99741015D01*
G36*
X150309448Y-99759676D02*
G01*
X150194342Y-99837111D01*
X150105389Y-99948949D01*
X150052251Y-100091265D01*
X150041503Y-100196015D01*
X150042724Y-100239726D01*
X150052944Y-100273194D01*
X150081039Y-100303179D01*
X150135884Y-100336440D01*
X150226355Y-100379738D01*
X150361328Y-100439833D01*
X150362011Y-100440134D01*
X150486249Y-100497037D01*
X150588127Y-100547565D01*
X150657233Y-100586280D01*
X150683154Y-100607740D01*
X150683161Y-100607913D01*
X150660315Y-100654644D01*
X150606891Y-100706154D01*
X150545558Y-100743261D01*
X150514485Y-100750632D01*
X150429711Y-100725138D01*
X150356707Y-100661291D01*
X150321087Y-100591094D01*
X150286820Y-100539343D01*
X150219697Y-100480409D01*
X150140792Y-100429496D01*
X150071179Y-100401809D01*
X150056623Y-100400287D01*
X150040237Y-100425321D01*
X150039250Y-100489311D01*
X150051292Y-100575593D01*
X150073993Y-100667501D01*
X150104986Y-100748369D01*
X150106552Y-100751509D01*
X150199819Y-100881734D01*
X150320696Y-100970311D01*
X150457973Y-101013786D01*
X150600440Y-101008706D01*
X150736888Y-100951616D01*
X150742955Y-100947602D01*
X150850290Y-100850326D01*
X150920868Y-100723409D01*
X150959926Y-100556526D01*
X150965168Y-100509639D01*
X150974452Y-100288329D01*
X150963322Y-100185124D01*
X150683161Y-100185124D01*
X150679521Y-100249503D01*
X150659611Y-100268291D01*
X150609974Y-100254235D01*
X150531733Y-100221009D01*
X150444274Y-100179359D01*
X150442101Y-100178256D01*
X150367970Y-100139265D01*
X150338219Y-100113244D01*
X150345555Y-100085965D01*
X150376447Y-100050121D01*
X150455040Y-99998251D01*
X150539677Y-99994439D01*
X150615597Y-100032189D01*
X150668035Y-100105001D01*
X150683161Y-100185124D01*
X150963322Y-100185124D01*
X150955356Y-100111261D01*
X150906366Y-99970829D01*
X150838164Y-99872447D01*
X150715065Y-99773030D01*
X150579472Y-99723711D01*
X150441045Y-99720568D01*
X150309448Y-99759676D01*
G37*
X150309448Y-99759676D02*
X150194342Y-99837111D01*
X150105389Y-99948949D01*
X150052251Y-100091265D01*
X150041503Y-100196015D01*
X150042724Y-100239726D01*
X150052944Y-100273194D01*
X150081039Y-100303179D01*
X150135884Y-100336440D01*
X150226355Y-100379738D01*
X150361328Y-100439833D01*
X150362011Y-100440134D01*
X150486249Y-100497037D01*
X150588127Y-100547565D01*
X150657233Y-100586280D01*
X150683154Y-100607740D01*
X150683161Y-100607913D01*
X150660315Y-100654644D01*
X150606891Y-100706154D01*
X150545558Y-100743261D01*
X150514485Y-100750632D01*
X150429711Y-100725138D01*
X150356707Y-100661291D01*
X150321087Y-100591094D01*
X150286820Y-100539343D01*
X150219697Y-100480409D01*
X150140792Y-100429496D01*
X150071179Y-100401809D01*
X150056623Y-100400287D01*
X150040237Y-100425321D01*
X150039250Y-100489311D01*
X150051292Y-100575593D01*
X150073993Y-100667501D01*
X150104986Y-100748369D01*
X150106552Y-100751509D01*
X150199819Y-100881734D01*
X150320696Y-100970311D01*
X150457973Y-101013786D01*
X150600440Y-101008706D01*
X150736888Y-100951616D01*
X150742955Y-100947602D01*
X150850290Y-100850326D01*
X150920868Y-100723409D01*
X150959926Y-100556526D01*
X150965168Y-100509639D01*
X150974452Y-100288329D01*
X150963322Y-100185124D01*
X150683161Y-100185124D01*
X150679521Y-100249503D01*
X150659611Y-100268291D01*
X150609974Y-100254235D01*
X150531733Y-100221009D01*
X150444274Y-100179359D01*
X150442101Y-100178256D01*
X150367970Y-100139265D01*
X150338219Y-100113244D01*
X150345555Y-100085965D01*
X150376447Y-100050121D01*
X150455040Y-99998251D01*
X150539677Y-99994439D01*
X150615597Y-100032189D01*
X150668035Y-100105001D01*
X150683161Y-100185124D01*
X150963322Y-100185124D01*
X150955356Y-100111261D01*
X150906366Y-99970829D01*
X150838164Y-99872447D01*
X150715065Y-99773030D01*
X150579472Y-99723711D01*
X150441045Y-99720568D01*
X150309448Y-99759676D01*
G36*
X147880402Y-99598857D02*
G01*
X147871846Y-99718188D01*
X147862019Y-99788506D01*
X147848401Y-99819179D01*
X147828473Y-99819571D01*
X147822011Y-99815910D01*
X147736060Y-99789398D01*
X147624255Y-99790946D01*
X147510586Y-99818199D01*
X147439490Y-99853455D01*
X147366595Y-99909778D01*
X147313307Y-99973519D01*
X147276725Y-100054510D01*
X147253950Y-100162586D01*
X147242081Y-100307580D01*
X147238218Y-100499326D01*
X147238149Y-100536109D01*
X147238103Y-100949288D01*
X147330046Y-100981339D01*
X147395348Y-101003144D01*
X147431176Y-101013297D01*
X147432230Y-101013391D01*
X147435758Y-100985860D01*
X147438761Y-100909923D01*
X147441010Y-100795565D01*
X147442276Y-100652769D01*
X147442471Y-100565951D01*
X147442877Y-100394773D01*
X147444968Y-100272088D01*
X147450053Y-100188000D01*
X147459440Y-100132614D01*
X147474439Y-100096032D01*
X147496358Y-100068359D01*
X147510043Y-100055032D01*
X147604051Y-100001328D01*
X147706636Y-99997307D01*
X147799710Y-100042725D01*
X147816922Y-100059123D01*
X147842168Y-100089957D01*
X147859680Y-100126531D01*
X147870858Y-100179415D01*
X147877104Y-100259177D01*
X147879818Y-100376385D01*
X147880402Y-100537991D01*
X147880402Y-100949288D01*
X147972345Y-100981339D01*
X148037647Y-101003144D01*
X148073475Y-101013297D01*
X148074529Y-101013391D01*
X148077225Y-100985448D01*
X148079655Y-100906630D01*
X148081722Y-100784453D01*
X148083329Y-100626432D01*
X148084377Y-100440083D01*
X148084769Y-100232920D01*
X148084770Y-100223706D01*
X148084770Y-99434020D01*
X147989885Y-99393997D01*
X147895000Y-99353973D01*
X147880402Y-99598857D01*
G37*
X147880402Y-99598857D02*
X147871846Y-99718188D01*
X147862019Y-99788506D01*
X147848401Y-99819179D01*
X147828473Y-99819571D01*
X147822011Y-99815910D01*
X147736060Y-99789398D01*
X147624255Y-99790946D01*
X147510586Y-99818199D01*
X147439490Y-99853455D01*
X147366595Y-99909778D01*
X147313307Y-99973519D01*
X147276725Y-100054510D01*
X147253950Y-100162586D01*
X147242081Y-100307580D01*
X147238218Y-100499326D01*
X147238149Y-100536109D01*
X147238103Y-100949288D01*
X147330046Y-100981339D01*
X147395348Y-101003144D01*
X147431176Y-101013297D01*
X147432230Y-101013391D01*
X147435758Y-100985860D01*
X147438761Y-100909923D01*
X147441010Y-100795565D01*
X147442276Y-100652769D01*
X147442471Y-100565951D01*
X147442877Y-100394773D01*
X147444968Y-100272088D01*
X147450053Y-100188000D01*
X147459440Y-100132614D01*
X147474439Y-100096032D01*
X147496358Y-100068359D01*
X147510043Y-100055032D01*
X147604051Y-100001328D01*
X147706636Y-99997307D01*
X147799710Y-100042725D01*
X147816922Y-100059123D01*
X147842168Y-100089957D01*
X147859680Y-100126531D01*
X147870858Y-100179415D01*
X147877104Y-100259177D01*
X147879818Y-100376385D01*
X147880402Y-100537991D01*
X147880402Y-100949288D01*
X147972345Y-100981339D01*
X148037647Y-101003144D01*
X148073475Y-101013297D01*
X148074529Y-101013391D01*
X148077225Y-100985448D01*
X148079655Y-100906630D01*
X148081722Y-100784453D01*
X148083329Y-100626432D01*
X148084377Y-100440083D01*
X148084769Y-100232920D01*
X148084770Y-100223706D01*
X148084770Y-99434020D01*
X147989885Y-99393997D01*
X147895000Y-99353973D01*
X147880402Y-99598857D01*
G36*
X146545056Y-99799360D02*
G01*
X146430657Y-99841842D01*
X146429348Y-99842658D01*
X146358597Y-99894730D01*
X146306364Y-99955584D01*
X146269629Y-100034887D01*
X146245366Y-100142309D01*
X146230555Y-100287517D01*
X146222171Y-100480179D01*
X146221436Y-100507628D01*
X146210880Y-100921521D01*
X146299709Y-100967456D01*
X146363982Y-100998498D01*
X146402790Y-101013206D01*
X146404585Y-101013391D01*
X146411300Y-100986250D01*
X146416635Y-100913041D01*
X146419917Y-100806081D01*
X146420632Y-100719469D01*
X146420649Y-100579162D01*
X146427063Y-100491051D01*
X146449420Y-100449025D01*
X146497268Y-100446975D01*
X146580151Y-100478790D01*
X146705287Y-100537272D01*
X146797303Y-100585845D01*
X146844629Y-100627986D01*
X146858542Y-100673916D01*
X146858563Y-100676189D01*
X146835605Y-100755311D01*
X146767630Y-100798055D01*
X146663602Y-100804246D01*
X146588670Y-100803172D01*
X146549161Y-100824753D01*
X146524522Y-100876591D01*
X146510341Y-100942632D01*
X146530777Y-100980104D01*
X146538472Y-100985467D01*
X146610917Y-101007006D01*
X146712367Y-101010055D01*
X146816843Y-100995778D01*
X146890875Y-100969688D01*
X146993228Y-100882785D01*
X147051409Y-100761816D01*
X147062931Y-100667308D01*
X147054138Y-100582062D01*
X147022320Y-100512476D01*
X146959316Y-100450672D01*
X146856969Y-100388772D01*
X146707118Y-100318897D01*
X146697988Y-100314948D01*
X146563003Y-100252588D01*
X146479706Y-100201446D01*
X146444003Y-100155488D01*
X146451797Y-100108683D01*
X146498993Y-100054998D01*
X146513106Y-100042644D01*
X146607641Y-99994741D01*
X146705594Y-99996758D01*
X146790903Y-100043724D01*
X146847504Y-100130669D01*
X146852763Y-100147734D01*
X146903977Y-100230504D01*
X146968963Y-100270372D01*
X147062931Y-100309882D01*
X147062931Y-100207658D01*
X147034347Y-100059072D01*
X146949505Y-99922784D01*
X146905355Y-99877191D01*
X146804995Y-99818674D01*
X146677365Y-99792184D01*
X146545056Y-99799360D01*
G37*
X146545056Y-99799360D02*
X146430657Y-99841842D01*
X146429348Y-99842658D01*
X146358597Y-99894730D01*
X146306364Y-99955584D01*
X146269629Y-100034887D01*
X146245366Y-100142309D01*
X146230555Y-100287517D01*
X146222171Y-100480179D01*
X146221436Y-100507628D01*
X146210880Y-100921521D01*
X146299709Y-100967456D01*
X146363982Y-100998498D01*
X146402790Y-101013206D01*
X146404585Y-101013391D01*
X146411300Y-100986250D01*
X146416635Y-100913041D01*
X146419917Y-100806081D01*
X146420632Y-100719469D01*
X146420649Y-100579162D01*
X146427063Y-100491051D01*
X146449420Y-100449025D01*
X146497268Y-100446975D01*
X146580151Y-100478790D01*
X146705287Y-100537272D01*
X146797303Y-100585845D01*
X146844629Y-100627986D01*
X146858542Y-100673916D01*
X146858563Y-100676189D01*
X146835605Y-100755311D01*
X146767630Y-100798055D01*
X146663602Y-100804246D01*
X146588670Y-100803172D01*
X146549161Y-100824753D01*
X146524522Y-100876591D01*
X146510341Y-100942632D01*
X146530777Y-100980104D01*
X146538472Y-100985467D01*
X146610917Y-101007006D01*
X146712367Y-101010055D01*
X146816843Y-100995778D01*
X146890875Y-100969688D01*
X146993228Y-100882785D01*
X147051409Y-100761816D01*
X147062931Y-100667308D01*
X147054138Y-100582062D01*
X147022320Y-100512476D01*
X146959316Y-100450672D01*
X146856969Y-100388772D01*
X146707118Y-100318897D01*
X146697988Y-100314948D01*
X146563003Y-100252588D01*
X146479706Y-100201446D01*
X146444003Y-100155488D01*
X146451797Y-100108683D01*
X146498993Y-100054998D01*
X146513106Y-100042644D01*
X146607641Y-99994741D01*
X146705594Y-99996758D01*
X146790903Y-100043724D01*
X146847504Y-100130669D01*
X146852763Y-100147734D01*
X146903977Y-100230504D01*
X146968963Y-100270372D01*
X147062931Y-100309882D01*
X147062931Y-100207658D01*
X147034347Y-100059072D01*
X146949505Y-99922784D01*
X146905355Y-99877191D01*
X146804995Y-99818674D01*
X146677365Y-99792184D01*
X146545056Y-99799360D01*
G36*
X145559057Y-99796920D02*
G01*
X145426435Y-99845859D01*
X145318990Y-99932419D01*
X145276968Y-99993352D01*
X145231157Y-100105161D01*
X145232109Y-100186006D01*
X145280192Y-100240378D01*
X145297983Y-100249624D01*
X145374796Y-100278450D01*
X145414024Y-100271065D01*
X145427311Y-100222658D01*
X145427988Y-100195920D01*
X145452314Y-100097548D01*
X145515719Y-100028734D01*
X145603846Y-99995498D01*
X145702337Y-100003861D01*
X145782398Y-100047296D01*
X145809439Y-100072072D01*
X145828606Y-100102129D01*
X145841554Y-100147565D01*
X145849936Y-100218476D01*
X145855407Y-100324960D01*
X145859622Y-100477112D01*
X145860713Y-100525287D01*
X145864693Y-100690095D01*
X145869219Y-100806088D01*
X145876005Y-100882833D01*
X145886769Y-100929893D01*
X145903227Y-100956835D01*
X145927094Y-100973223D01*
X145942374Y-100980463D01*
X146007267Y-101005220D01*
X146045466Y-101013391D01*
X146058088Y-100986103D01*
X146065792Y-100903603D01*
X146068620Y-100764941D01*
X146066614Y-100569162D01*
X146065989Y-100538965D01*
X146061579Y-100360349D01*
X146056365Y-100229923D01*
X146048945Y-100137492D01*
X146037918Y-100072858D01*
X146021883Y-100025825D01*
X145999439Y-99986196D01*
X145987698Y-99969215D01*
X145920381Y-99894080D01*
X145845090Y-99835638D01*
X145835872Y-99830536D01*
X145700867Y-99790260D01*
X145559057Y-99796920D01*
G37*
X145559057Y-99796920D02*
X145426435Y-99845859D01*
X145318990Y-99932419D01*
X145276968Y-99993352D01*
X145231157Y-100105161D01*
X145232109Y-100186006D01*
X145280192Y-100240378D01*
X145297983Y-100249624D01*
X145374796Y-100278450D01*
X145414024Y-100271065D01*
X145427311Y-100222658D01*
X145427988Y-100195920D01*
X145452314Y-100097548D01*
X145515719Y-100028734D01*
X145603846Y-99995498D01*
X145702337Y-100003861D01*
X145782398Y-100047296D01*
X145809439Y-100072072D01*
X145828606Y-100102129D01*
X145841554Y-100147565D01*
X145849936Y-100218476D01*
X145855407Y-100324960D01*
X145859622Y-100477112D01*
X145860713Y-100525287D01*
X145864693Y-100690095D01*
X145869219Y-100806088D01*
X145876005Y-100882833D01*
X145886769Y-100929893D01*
X145903227Y-100956835D01*
X145927094Y-100973223D01*
X145942374Y-100980463D01*
X146007267Y-101005220D01*
X146045466Y-101013391D01*
X146058088Y-100986103D01*
X146065792Y-100903603D01*
X146068620Y-100764941D01*
X146066614Y-100569162D01*
X146065989Y-100538965D01*
X146061579Y-100360349D01*
X146056365Y-100229923D01*
X146048945Y-100137492D01*
X146037918Y-100072858D01*
X146021883Y-100025825D01*
X145999439Y-99986196D01*
X145987698Y-99969215D01*
X145920381Y-99894080D01*
X145845090Y-99835638D01*
X145835872Y-99830536D01*
X145700867Y-99790260D01*
X145559057Y-99796920D01*
G36*
X144231086Y-100029455D02*
G01*
X144231457Y-100247661D01*
X144232892Y-100415519D01*
X144235998Y-100541070D01*
X144241378Y-100632355D01*
X144249638Y-100697415D01*
X144261384Y-100744291D01*
X144277219Y-100781024D01*
X144289210Y-100801991D01*
X144388510Y-100915694D01*
X144514412Y-100986965D01*
X144653709Y-101012538D01*
X144793195Y-100989150D01*
X144876257Y-100947119D01*
X144963455Y-100874411D01*
X145022883Y-100785612D01*
X145058739Y-100669320D01*
X145075219Y-100514135D01*
X145077553Y-100400287D01*
X145077239Y-100392106D01*
X144873276Y-100392106D01*
X144872030Y-100522657D01*
X144866322Y-100609080D01*
X144853196Y-100665618D01*
X144829694Y-100706514D01*
X144801614Y-100737362D01*
X144707312Y-100796905D01*
X144606060Y-100801992D01*
X144510364Y-100752279D01*
X144502916Y-100745543D01*
X144471126Y-100710502D01*
X144451192Y-100668811D01*
X144440400Y-100606762D01*
X144436035Y-100510644D01*
X144435345Y-100404379D01*
X144436841Y-100270880D01*
X144443036Y-100181822D01*
X144456486Y-100123293D01*
X144479749Y-100081382D01*
X144498825Y-100059123D01*
X144587437Y-100002985D01*
X144689492Y-99996235D01*
X144786905Y-100039114D01*
X144805704Y-100055032D01*
X144837707Y-100090382D01*
X144857682Y-100132502D01*
X144868407Y-100195251D01*
X144872661Y-100292487D01*
X144873276Y-100392106D01*
X145077239Y-100392106D01*
X145070496Y-100216947D01*
X145046528Y-100079195D01*
X145001452Y-99975632D01*
X144931072Y-99894856D01*
X144876257Y-99853455D01*
X144776624Y-99808728D01*
X144661145Y-99787967D01*
X144553801Y-99793525D01*
X144493736Y-99815943D01*
X144470165Y-99822323D01*
X144454523Y-99798535D01*
X144443605Y-99734788D01*
X144435345Y-99637687D01*
X144426301Y-99529541D01*
X144413739Y-99464475D01*
X144390881Y-99427268D01*
X144350949Y-99402699D01*
X144325862Y-99391819D01*
X144230977Y-99352072D01*
X144231086Y-100029455D01*
G37*
X144231086Y-100029455D02*
X144231457Y-100247661D01*
X144232892Y-100415519D01*
X144235998Y-100541070D01*
X144241378Y-100632355D01*
X144249638Y-100697415D01*
X144261384Y-100744291D01*
X144277219Y-100781024D01*
X144289210Y-100801991D01*
X144388510Y-100915694D01*
X144514412Y-100986965D01*
X144653709Y-101012538D01*
X144793195Y-100989150D01*
X144876257Y-100947119D01*
X144963455Y-100874411D01*
X145022883Y-100785612D01*
X145058739Y-100669320D01*
X145075219Y-100514135D01*
X145077553Y-100400287D01*
X145077239Y-100392106D01*
X144873276Y-100392106D01*
X144872030Y-100522657D01*
X144866322Y-100609080D01*
X144853196Y-100665618D01*
X144829694Y-100706514D01*
X144801614Y-100737362D01*
X144707312Y-100796905D01*
X144606060Y-100801992D01*
X144510364Y-100752279D01*
X144502916Y-100745543D01*
X144471126Y-100710502D01*
X144451192Y-100668811D01*
X144440400Y-100606762D01*
X144436035Y-100510644D01*
X144435345Y-100404379D01*
X144436841Y-100270880D01*
X144443036Y-100181822D01*
X144456486Y-100123293D01*
X144479749Y-100081382D01*
X144498825Y-100059123D01*
X144587437Y-100002985D01*
X144689492Y-99996235D01*
X144786905Y-100039114D01*
X144805704Y-100055032D01*
X144837707Y-100090382D01*
X144857682Y-100132502D01*
X144868407Y-100195251D01*
X144872661Y-100292487D01*
X144873276Y-100392106D01*
X145077239Y-100392106D01*
X145070496Y-100216947D01*
X145046528Y-100079195D01*
X145001452Y-99975632D01*
X144931072Y-99894856D01*
X144876257Y-99853455D01*
X144776624Y-99808728D01*
X144661145Y-99787967D01*
X144553801Y-99793525D01*
X144493736Y-99815943D01*
X144470165Y-99822323D01*
X144454523Y-99798535D01*
X144443605Y-99734788D01*
X144435345Y-99637687D01*
X144426301Y-99529541D01*
X144413739Y-99464475D01*
X144390881Y-99427268D01*
X144350949Y-99402699D01*
X144325862Y-99391819D01*
X144230977Y-99352072D01*
X144231086Y-100029455D01*
G36*
X143044876Y-99814840D02*
G01*
X143040421Y-99891653D01*
X143036929Y-100008391D01*
X143034685Y-100155821D01*
X143033965Y-100310455D01*
X143033965Y-100833727D01*
X143126355Y-100926117D01*
X143190022Y-100983047D01*
X143245911Y-101006107D01*
X143322298Y-101004647D01*
X143352620Y-101000934D01*
X143447390Y-100990126D01*
X143525778Y-100983933D01*
X143544885Y-100983361D01*
X143609301Y-100987102D01*
X143701429Y-100996494D01*
X143737150Y-101000934D01*
X143824886Y-101007801D01*
X143883847Y-100992885D01*
X143942310Y-100946835D01*
X143963415Y-100926117D01*
X144055805Y-100833727D01*
X144055805Y-99854947D01*
X143981442Y-99821066D01*
X143917410Y-99795970D01*
X143879948Y-99787184D01*
X143870343Y-99814950D01*
X143861365Y-99892530D01*
X143853614Y-100011348D01*
X143847686Y-100162828D01*
X143844827Y-100290805D01*
X143836839Y-100794425D01*
X143767152Y-100804278D01*
X143703771Y-100797389D01*
X143672714Y-100775083D01*
X143664033Y-100733379D01*
X143656622Y-100644544D01*
X143651069Y-100519834D01*
X143647964Y-100370507D01*
X143647516Y-100293661D01*
X143647069Y-99851287D01*
X143555126Y-99819235D01*
X143490051Y-99797443D01*
X143454653Y-99787281D01*
X143453632Y-99787184D01*
X143450080Y-99814809D01*
X143446177Y-99891411D01*
X143442249Y-100007579D01*
X143438624Y-100153904D01*
X143436092Y-100290805D01*
X143428103Y-100794425D01*
X143252931Y-100794425D01*
X143244893Y-100334965D01*
X143236854Y-99875505D01*
X143151457Y-99831344D01*
X143088407Y-99801019D01*
X143051090Y-99787258D01*
X143050013Y-99787184D01*
X143044876Y-99814840D01*
G37*
X143044876Y-99814840D02*
X143040421Y-99891653D01*
X143036929Y-100008391D01*
X143034685Y-100155821D01*
X143033965Y-100310455D01*
X143033965Y-100833727D01*
X143126355Y-100926117D01*
X143190022Y-100983047D01*
X143245911Y-101006107D01*
X143322298Y-101004647D01*
X143352620Y-101000934D01*
X143447390Y-100990126D01*
X143525778Y-100983933D01*
X143544885Y-100983361D01*
X143609301Y-100987102D01*
X143701429Y-100996494D01*
X143737150Y-101000934D01*
X143824886Y-101007801D01*
X143883847Y-100992885D01*
X143942310Y-100946835D01*
X143963415Y-100926117D01*
X144055805Y-100833727D01*
X144055805Y-99854947D01*
X143981442Y-99821066D01*
X143917410Y-99795970D01*
X143879948Y-99787184D01*
X143870343Y-99814950D01*
X143861365Y-99892530D01*
X143853614Y-100011348D01*
X143847686Y-100162828D01*
X143844827Y-100290805D01*
X143836839Y-100794425D01*
X143767152Y-100804278D01*
X143703771Y-100797389D01*
X143672714Y-100775083D01*
X143664033Y-100733379D01*
X143656622Y-100644544D01*
X143651069Y-100519834D01*
X143647964Y-100370507D01*
X143647516Y-100293661D01*
X143647069Y-99851287D01*
X143555126Y-99819235D01*
X143490051Y-99797443D01*
X143454653Y-99787281D01*
X143453632Y-99787184D01*
X143450080Y-99814809D01*
X143446177Y-99891411D01*
X143442249Y-100007579D01*
X143438624Y-100153904D01*
X143436092Y-100290805D01*
X143428103Y-100794425D01*
X143252931Y-100794425D01*
X143244893Y-100334965D01*
X143236854Y-99875505D01*
X143151457Y-99831344D01*
X143088407Y-99801019D01*
X143051090Y-99787258D01*
X143050013Y-99787184D01*
X143044876Y-99814840D01*
G36*
X142310594Y-99810156D02*
G01*
X142226531Y-99848393D01*
X142160550Y-99894726D01*
X142112206Y-99946532D01*
X142078828Y-100013363D01*
X142057747Y-100104769D01*
X142046293Y-100230301D01*
X142041797Y-100399508D01*
X142041322Y-100510933D01*
X142041322Y-100945627D01*
X142115684Y-100979509D01*
X142174254Y-101004272D01*
X142203270Y-101013391D01*
X142208821Y-100986257D01*
X142213225Y-100913094D01*
X142215922Y-100806263D01*
X142216494Y-100721437D01*
X142218954Y-100598887D01*
X142225588Y-100501668D01*
X142235274Y-100442134D01*
X142242968Y-100429483D01*
X142294689Y-100442402D01*
X142375883Y-100475539D01*
X142469898Y-100520461D01*
X142560083Y-100568735D01*
X142629785Y-100611928D01*
X142662352Y-100641608D01*
X142662481Y-100641929D01*
X142659680Y-100696857D01*
X142634561Y-100749292D01*
X142590459Y-100791881D01*
X142526091Y-100806126D01*
X142471079Y-100804466D01*
X142393165Y-100803245D01*
X142352268Y-100821498D01*
X142327705Y-100869726D01*
X142324608Y-100878820D01*
X142313960Y-100947598D01*
X142342435Y-100989360D01*
X142416656Y-101009263D01*
X142496832Y-101012944D01*
X142641110Y-100985658D01*
X142715797Y-100946690D01*
X142808037Y-100855148D01*
X142856957Y-100742782D01*
X142861346Y-100624051D01*
X142819999Y-100513411D01*
X142757803Y-100444080D01*
X142695706Y-100405265D01*
X142598105Y-100356125D01*
X142484368Y-100306292D01*
X142465410Y-100298677D01*
X142340479Y-100243545D01*
X142268461Y-100194954D01*
X142245300Y-100146647D01*
X142266936Y-100092370D01*
X142304080Y-100049943D01*
X142391873Y-99997702D01*
X142488470Y-99993784D01*
X142577056Y-100034041D01*
X142640814Y-100114326D01*
X142649183Y-100135040D01*
X142697904Y-100211225D01*
X142769035Y-100267785D01*
X142858793Y-100314201D01*
X142858793Y-100182584D01*
X142853510Y-100102168D01*
X142830858Y-100038786D01*
X142780633Y-99971163D01*
X142732418Y-99919076D01*
X142657446Y-99845322D01*
X142599194Y-99805702D01*
X142536628Y-99789810D01*
X142465807Y-99787184D01*
X142310594Y-99810156D01*
G37*
X142310594Y-99810156D02*
X142226531Y-99848393D01*
X142160550Y-99894726D01*
X142112206Y-99946532D01*
X142078828Y-100013363D01*
X142057747Y-100104769D01*
X142046293Y-100230301D01*
X142041797Y-100399508D01*
X142041322Y-100510933D01*
X142041322Y-100945627D01*
X142115684Y-100979509D01*
X142174254Y-101004272D01*
X142203270Y-101013391D01*
X142208821Y-100986257D01*
X142213225Y-100913094D01*
X142215922Y-100806263D01*
X142216494Y-100721437D01*
X142218954Y-100598887D01*
X142225588Y-100501668D01*
X142235274Y-100442134D01*
X142242968Y-100429483D01*
X142294689Y-100442402D01*
X142375883Y-100475539D01*
X142469898Y-100520461D01*
X142560083Y-100568735D01*
X142629785Y-100611928D01*
X142662352Y-100641608D01*
X142662481Y-100641929D01*
X142659680Y-100696857D01*
X142634561Y-100749292D01*
X142590459Y-100791881D01*
X142526091Y-100806126D01*
X142471079Y-100804466D01*
X142393165Y-100803245D01*
X142352268Y-100821498D01*
X142327705Y-100869726D01*
X142324608Y-100878820D01*
X142313960Y-100947598D01*
X142342435Y-100989360D01*
X142416656Y-101009263D01*
X142496832Y-101012944D01*
X142641110Y-100985658D01*
X142715797Y-100946690D01*
X142808037Y-100855148D01*
X142856957Y-100742782D01*
X142861346Y-100624051D01*
X142819999Y-100513411D01*
X142757803Y-100444080D01*
X142695706Y-100405265D01*
X142598105Y-100356125D01*
X142484368Y-100306292D01*
X142465410Y-100298677D01*
X142340479Y-100243545D01*
X142268461Y-100194954D01*
X142245300Y-100146647D01*
X142266936Y-100092370D01*
X142304080Y-100049943D01*
X142391873Y-99997702D01*
X142488470Y-99993784D01*
X142577056Y-100034041D01*
X142640814Y-100114326D01*
X142649183Y-100135040D01*
X142697904Y-100211225D01*
X142769035Y-100267785D01*
X142858793Y-100314201D01*
X142858793Y-100182584D01*
X142853510Y-100102168D01*
X142830858Y-100038786D01*
X142780633Y-99971163D01*
X142732418Y-99919076D01*
X142657446Y-99845322D01*
X142599194Y-99805702D01*
X142536628Y-99789810D01*
X142465807Y-99787184D01*
X142310594Y-99810156D01*
G36*
X141289310Y-99815018D02*
G01*
X141254415Y-99830269D01*
X141171123Y-99896235D01*
X141099897Y-99991618D01*
X141055847Y-100093406D01*
X141048678Y-100143587D01*
X141072715Y-100213647D01*
X141125439Y-100250717D01*
X141181969Y-100273164D01*
X141207854Y-100277300D01*
X141220458Y-100247283D01*
X141245346Y-100181961D01*
X141256265Y-100152445D01*
X141317492Y-100050348D01*
X141406139Y-99999423D01*
X141519807Y-100000989D01*
X141528226Y-100002994D01*
X141588912Y-100031767D01*
X141633526Y-100087859D01*
X141663998Y-100178163D01*
X141682256Y-100309571D01*
X141690229Y-100488974D01*
X141690977Y-100584433D01*
X141691348Y-100734913D01*
X141693777Y-100837495D01*
X141700240Y-100902672D01*
X141712712Y-100940938D01*
X141733167Y-100962785D01*
X141763581Y-100978707D01*
X141765339Y-100979509D01*
X141823909Y-101004272D01*
X141852925Y-101013391D01*
X141857384Y-100985822D01*
X141861201Y-100909620D01*
X141864101Y-100794541D01*
X141865809Y-100650341D01*
X141866149Y-100544814D01*
X141864412Y-100340613D01*
X141857618Y-100185697D01*
X141843393Y-100071024D01*
X141819362Y-99987551D01*
X141783152Y-99926236D01*
X141732388Y-99878034D01*
X141682261Y-99844393D01*
X141561725Y-99799619D01*
X141421443Y-99789521D01*
X141289310Y-99815018D01*
G37*
X141289310Y-99815018D02*
X141254415Y-99830269D01*
X141171123Y-99896235D01*
X141099897Y-99991618D01*
X141055847Y-100093406D01*
X141048678Y-100143587D01*
X141072715Y-100213647D01*
X141125439Y-100250717D01*
X141181969Y-100273164D01*
X141207854Y-100277300D01*
X141220458Y-100247283D01*
X141245346Y-100181961D01*
X141256265Y-100152445D01*
X141317492Y-100050348D01*
X141406139Y-99999423D01*
X141519807Y-100000989D01*
X141528226Y-100002994D01*
X141588912Y-100031767D01*
X141633526Y-100087859D01*
X141663998Y-100178163D01*
X141682256Y-100309571D01*
X141690229Y-100488974D01*
X141690977Y-100584433D01*
X141691348Y-100734913D01*
X141693777Y-100837495D01*
X141700240Y-100902672D01*
X141712712Y-100940938D01*
X141733167Y-100962785D01*
X141763581Y-100978707D01*
X141765339Y-100979509D01*
X141823909Y-101004272D01*
X141852925Y-101013391D01*
X141857384Y-100985822D01*
X141861201Y-100909620D01*
X141864101Y-100794541D01*
X141865809Y-100650341D01*
X141866149Y-100544814D01*
X141864412Y-100340613D01*
X141857618Y-100185697D01*
X141843393Y-100071024D01*
X141819362Y-99987551D01*
X141783152Y-99926236D01*
X141732388Y-99878034D01*
X141682261Y-99844393D01*
X141561725Y-99799619D01*
X141421443Y-99789521D01*
X141289310Y-99815018D01*
G36*
X140281561Y-99831540D02*
G01*
X140166050Y-99907034D01*
X140110336Y-99974617D01*
X140066196Y-100097255D01*
X140062691Y-100194298D01*
X140070632Y-100324056D01*
X140369885Y-100455039D01*
X140515389Y-100521958D01*
X140610463Y-100575790D01*
X140659899Y-100622416D01*
X140668489Y-100667720D01*
X140641028Y-100717582D01*
X140610747Y-100750632D01*
X140522637Y-100803633D01*
X140426804Y-100807347D01*
X140338788Y-100766041D01*
X140274131Y-100683983D01*
X140262567Y-100655008D01*
X140207175Y-100564509D01*
X140143447Y-100525940D01*
X140056034Y-100492946D01*
X140056034Y-100618034D01*
X140063762Y-100703156D01*
X140094034Y-100774938D01*
X140157482Y-100857356D01*
X140166912Y-100868066D01*
X140237487Y-100941391D01*
X140298153Y-100980742D01*
X140374050Y-100998845D01*
X140436970Y-101004774D01*
X140549513Y-101006251D01*
X140629630Y-100987535D01*
X140679610Y-100959747D01*
X140758162Y-100898641D01*
X140812537Y-100832554D01*
X140846948Y-100749441D01*
X140865612Y-100637254D01*
X140872744Y-100483946D01*
X140873313Y-100406136D01*
X140871378Y-100312853D01*
X140695101Y-100312853D01*
X140693056Y-100362896D01*
X140687961Y-100371092D01*
X140654334Y-100359958D01*
X140581970Y-100330493D01*
X140485253Y-100288601D01*
X140465027Y-100279597D01*
X140342797Y-100217442D01*
X140275453Y-100162815D01*
X140260652Y-100111649D01*
X140296053Y-100059876D01*
X140325289Y-100037000D01*
X140430784Y-99991250D01*
X140529524Y-99998808D01*
X140612188Y-100054651D01*
X140669452Y-100153753D01*
X140687812Y-100232414D01*
X140695101Y-100312853D01*
X140871378Y-100312853D01*
X140869541Y-100224351D01*
X140855641Y-100089853D01*
X140828106Y-99991916D01*
X140783428Y-99919811D01*
X140718099Y-99862813D01*
X140689617Y-99844393D01*
X140560237Y-99796422D01*
X140418588Y-99793403D01*
X140281561Y-99831540D01*
G37*
X140281561Y-99831540D02*
X140166050Y-99907034D01*
X140110336Y-99974617D01*
X140066196Y-100097255D01*
X140062691Y-100194298D01*
X140070632Y-100324056D01*
X140369885Y-100455039D01*
X140515389Y-100521958D01*
X140610463Y-100575790D01*
X140659899Y-100622416D01*
X140668489Y-100667720D01*
X140641028Y-100717582D01*
X140610747Y-100750632D01*
X140522637Y-100803633D01*
X140426804Y-100807347D01*
X140338788Y-100766041D01*
X140274131Y-100683983D01*
X140262567Y-100655008D01*
X140207175Y-100564509D01*
X140143447Y-100525940D01*
X140056034Y-100492946D01*
X140056034Y-100618034D01*
X140063762Y-100703156D01*
X140094034Y-100774938D01*
X140157482Y-100857356D01*
X140166912Y-100868066D01*
X140237487Y-100941391D01*
X140298153Y-100980742D01*
X140374050Y-100998845D01*
X140436970Y-101004774D01*
X140549513Y-101006251D01*
X140629630Y-100987535D01*
X140679610Y-100959747D01*
X140758162Y-100898641D01*
X140812537Y-100832554D01*
X140846948Y-100749441D01*
X140865612Y-100637254D01*
X140872744Y-100483946D01*
X140873313Y-100406136D01*
X140871378Y-100312853D01*
X140695101Y-100312853D01*
X140693056Y-100362896D01*
X140687961Y-100371092D01*
X140654334Y-100359958D01*
X140581970Y-100330493D01*
X140485253Y-100288601D01*
X140465027Y-100279597D01*
X140342797Y-100217442D01*
X140275453Y-100162815D01*
X140260652Y-100111649D01*
X140296053Y-100059876D01*
X140325289Y-100037000D01*
X140430784Y-99991250D01*
X140529524Y-99998808D01*
X140612188Y-100054651D01*
X140669452Y-100153753D01*
X140687812Y-100232414D01*
X140695101Y-100312853D01*
X140871378Y-100312853D01*
X140869541Y-100224351D01*
X140855641Y-100089853D01*
X140828106Y-99991916D01*
X140783428Y-99919811D01*
X140718099Y-99862813D01*
X140689617Y-99844393D01*
X140560237Y-99796422D01*
X140418588Y-99793403D01*
X140281561Y-99831540D01*
G36*
X146415986Y-90327998D02*
G01*
X146257994Y-90328863D01*
X146143653Y-90331205D01*
X146065593Y-90335762D01*
X146016446Y-90343270D01*
X145988841Y-90354466D01*
X145975408Y-90370088D01*
X145968779Y-90390873D01*
X145968135Y-90393563D01*
X145958065Y-90442113D01*
X145939425Y-90537905D01*
X145914155Y-90670743D01*
X145884193Y-90830431D01*
X145851478Y-91006774D01*
X145850336Y-91012967D01*
X145817567Y-91185782D01*
X145786907Y-91338469D01*
X145760336Y-91461871D01*
X145739833Y-91546831D01*
X145727374Y-91584190D01*
X145726780Y-91584852D01*
X145690081Y-91603095D01*
X145614414Y-91633497D01*
X145516122Y-91669493D01*
X145515575Y-91669685D01*
X145391767Y-91716222D01*
X145245804Y-91775504D01*
X145108219Y-91835109D01*
X145101707Y-91838056D01*
X144877610Y-91939765D01*
X144381381Y-91600897D01*
X144229154Y-91497592D01*
X144091259Y-91405237D01*
X143975685Y-91329084D01*
X143890421Y-91274385D01*
X143843456Y-91246393D01*
X143838996Y-91244317D01*
X143804866Y-91253560D01*
X143741119Y-91298156D01*
X143645269Y-91380209D01*
X143514831Y-91501821D01*
X143381672Y-91631205D01*
X143253306Y-91758702D01*
X143138419Y-91875046D01*
X143043927Y-91973052D01*
X142976747Y-92045536D01*
X142943794Y-92085313D01*
X142942568Y-92087361D01*
X142938926Y-92114656D01*
X142952650Y-92159234D01*
X142987131Y-92227112D01*
X143045761Y-92324311D01*
X143131930Y-92456851D01*
X143246800Y-92627476D01*
X143348746Y-92777655D01*
X143439877Y-92912350D01*
X143514927Y-93023740D01*
X143568631Y-93104005D01*
X143595720Y-93145325D01*
X143597426Y-93148130D01*
X143594118Y-93187721D01*
X143569047Y-93264669D01*
X143527202Y-93364432D01*
X143512288Y-93396291D01*
X143447214Y-93538226D01*
X143377788Y-93699273D01*
X143321391Y-93838621D01*
X143280753Y-93942044D01*
X143248474Y-94020642D01*
X143229822Y-94061720D01*
X143227503Y-94064885D01*
X143193197Y-94070128D01*
X143112331Y-94084494D01*
X142995657Y-94105937D01*
X142853925Y-94132413D01*
X142697890Y-94161877D01*
X142538302Y-94192283D01*
X142385915Y-94221588D01*
X142251479Y-94247745D01*
X142145748Y-94268710D01*
X142079474Y-94282439D01*
X142063218Y-94286320D01*
X142046427Y-94295900D01*
X142033751Y-94317536D01*
X142024622Y-94358531D01*
X142018469Y-94426189D01*
X142014720Y-94527812D01*
X142012808Y-94670703D01*
X142012160Y-94862165D01*
X142012126Y-94940645D01*
X142012126Y-95578906D01*
X142165402Y-95609160D01*
X142250678Y-95625564D01*
X142377930Y-95649509D01*
X142531685Y-95678107D01*
X142696466Y-95708467D01*
X142742011Y-95716806D01*
X142894068Y-95746370D01*
X143026532Y-95775442D01*
X143128286Y-95801329D01*
X143188212Y-95821337D01*
X143198195Y-95827301D01*
X143222707Y-95869534D01*
X143257852Y-95951370D01*
X143296827Y-96056683D01*
X143304558Y-96079368D01*
X143355640Y-96220018D01*
X143419046Y-96378714D01*
X143481096Y-96521225D01*
X143481402Y-96521886D01*
X143584733Y-96745440D01*
X142905039Y-97745232D01*
X143341379Y-98182300D01*
X143473351Y-98312381D01*
X143593721Y-98427048D01*
X143695727Y-98520181D01*
X143772609Y-98585658D01*
X143817607Y-98617357D01*
X143824062Y-98619368D01*
X143861960Y-98603529D01*
X143939292Y-98559496D01*
X144047611Y-98492490D01*
X144178468Y-98407734D01*
X144319948Y-98312816D01*
X144463539Y-98215998D01*
X144591565Y-98131751D01*
X144695895Y-98065258D01*
X144768400Y-98021702D01*
X144800842Y-98006264D01*
X144840424Y-98019328D01*
X144915481Y-98053750D01*
X145010532Y-98102380D01*
X145020608Y-98107785D01*
X145148609Y-98171980D01*
X145236382Y-98203463D01*
X145290972Y-98203798D01*
X145319425Y-98174548D01*
X145319590Y-98174138D01*
X145333812Y-98139498D01*
X145367731Y-98057269D01*
X145418716Y-97933814D01*
X145484138Y-97775498D01*
X145561366Y-97588686D01*
X145647771Y-97379742D01*
X145731449Y-97177446D01*
X145823412Y-96954200D01*
X145907850Y-96747392D01*
X145982231Y-96563362D01*
X146044026Y-96408451D01*
X146090703Y-96288996D01*
X146119732Y-96211339D01*
X146128678Y-96182356D01*
X146106244Y-96149110D01*
X146047561Y-96096123D01*
X145969311Y-96037704D01*
X145746466Y-95852952D01*
X145572282Y-95641182D01*
X145448846Y-95406856D01*
X145378246Y-95154434D01*
X145362569Y-94888377D01*
X145373964Y-94765575D01*
X145436050Y-94510793D01*
X145542977Y-94285801D01*
X145688111Y-94092817D01*
X145864822Y-93934061D01*
X146066478Y-93811750D01*
X146286446Y-93728105D01*
X146518094Y-93685344D01*
X146754791Y-93685687D01*
X146989905Y-93731352D01*
X147216804Y-93824559D01*
X147428856Y-93967527D01*
X147517364Y-94048383D01*
X147687111Y-94256007D01*
X147805301Y-94482895D01*
X147872722Y-94722433D01*
X147890160Y-94968007D01*
X147858402Y-95213003D01*
X147778235Y-95450808D01*
X147650445Y-95674807D01*
X147475820Y-95878387D01*
X147280688Y-96037704D01*
X147199409Y-96098602D01*
X147141991Y-96151015D01*
X147121322Y-96182406D01*
X147132144Y-96216639D01*
X147162923Y-96298419D01*
X147211126Y-96421407D01*
X147274222Y-96579263D01*
X147349678Y-96765649D01*
X147434962Y-96974226D01*
X147518781Y-97177496D01*
X147611255Y-97400933D01*
X147696911Y-97607984D01*
X147773118Y-97792286D01*
X147837247Y-97947475D01*
X147886668Y-98067188D01*
X147918752Y-98145061D01*
X147930641Y-98174138D01*
X147958726Y-98203677D01*
X148013051Y-98203591D01*
X148100605Y-98172326D01*
X148228381Y-98108329D01*
X148229392Y-98107785D01*
X148325598Y-98058121D01*
X148403369Y-98021945D01*
X148447223Y-98006408D01*
X148449158Y-98006264D01*
X148482171Y-98022024D01*
X148555054Y-98065850D01*
X148659678Y-98132557D01*
X148787910Y-98216964D01*
X148930052Y-98312816D01*
X149074767Y-98409867D01*
X149205196Y-98494270D01*
X149312890Y-98560801D01*
X149389402Y-98604238D01*
X149425938Y-98619368D01*
X149459582Y-98599482D01*
X149527224Y-98543903D01*
X149622107Y-98458754D01*
X149737470Y-98350153D01*
X149866555Y-98224221D01*
X149908771Y-98182149D01*
X150345261Y-97744931D01*
X150013023Y-97257340D01*
X149912054Y-97107605D01*
X149823438Y-96973220D01*
X149752146Y-96861969D01*
X149703150Y-96781639D01*
X149681422Y-96740014D01*
X149680785Y-96737053D01*
X149692240Y-96697818D01*
X149723051Y-96618895D01*
X149767884Y-96513509D01*
X149799353Y-96442954D01*
X149858192Y-96307876D01*
X149913604Y-96171409D01*
X149956564Y-96056103D01*
X149968234Y-96020977D01*
X150001389Y-95927174D01*
X150033799Y-95854694D01*
X150051601Y-95827301D01*
X150090886Y-95810536D01*
X150176626Y-95786770D01*
X150297697Y-95758697D01*
X150442973Y-95729009D01*
X150507988Y-95716806D01*
X150673087Y-95686468D01*
X150831448Y-95657093D01*
X150967596Y-95631569D01*
X151066057Y-95612785D01*
X151084598Y-95609160D01*
X151237873Y-95578906D01*
X151237873Y-94940645D01*
X151237529Y-94730770D01*
X151236116Y-94571980D01*
X151233064Y-94456973D01*
X151227803Y-94378446D01*
X151219763Y-94329096D01*
X151208373Y-94301619D01*
X151193063Y-94288713D01*
X151186782Y-94286320D01*
X151148896Y-94277833D01*
X151065195Y-94260900D01*
X150946433Y-94237566D01*
X150803361Y-94209875D01*
X150646732Y-94179873D01*
X150487297Y-94149604D01*
X150335809Y-94121115D01*
X150203019Y-94096449D01*
X150099681Y-94077651D01*
X150036545Y-94066767D01*
X150022497Y-94064885D01*
X150009770Y-94039704D01*
X149981600Y-93972622D01*
X149943252Y-93876333D01*
X149928609Y-93838621D01*
X149869548Y-93692921D01*
X149800000Y-93531951D01*
X149737712Y-93396291D01*
X149691879Y-93292561D01*
X149661387Y-93207326D01*
X149651208Y-93155126D01*
X149652831Y-93148130D01*
X149674343Y-93115102D01*
X149723465Y-93041643D01*
X149794923Y-92935577D01*
X149883445Y-92804726D01*
X149983759Y-92656912D01*
X150003594Y-92627734D01*
X150119988Y-92454863D01*
X150205548Y-92323226D01*
X150263684Y-92226761D01*
X150297808Y-92159408D01*
X150311331Y-92115106D01*
X150307664Y-92087794D01*
X150307570Y-92087620D01*
X150278707Y-92051746D01*
X150214867Y-91982391D01*
X150122969Y-91886745D01*
X150009933Y-91771999D01*
X149882679Y-91645341D01*
X149868328Y-91631205D01*
X149707957Y-91475903D01*
X149584195Y-91361870D01*
X149494555Y-91287002D01*
X149436552Y-91249196D01*
X149411004Y-91244317D01*
X149373718Y-91265603D01*
X149296343Y-91314773D01*
X149186867Y-91386575D01*
X149053280Y-91475755D01*
X148903570Y-91577063D01*
X148868618Y-91600897D01*
X148372390Y-91939765D01*
X148148293Y-91838056D01*
X148012011Y-91778783D01*
X147865724Y-91719170D01*
X147739965Y-91671640D01*
X147734425Y-91669685D01*
X147636057Y-91633677D01*
X147560229Y-91603229D01*
X147523282Y-91584905D01*
X147523220Y-91584852D01*
X147511496Y-91551729D01*
X147491568Y-91470267D01*
X147465413Y-91349625D01*
X147435010Y-91198959D01*
X147402337Y-91027428D01*
X147399664Y-91012967D01*
X147366890Y-90836235D01*
X147336802Y-90675810D01*
X147311339Y-90541888D01*
X147292441Y-90444663D01*
X147282047Y-90394332D01*
X147281865Y-90393563D01*
X147275539Y-90372153D01*
X147263239Y-90355988D01*
X147237594Y-90344331D01*
X147191235Y-90336445D01*
X147116792Y-90331593D01*
X147006895Y-90329039D01*
X146854175Y-90328045D01*
X146651262Y-90327874D01*
X146625000Y-90327874D01*
X146415986Y-90327998D01*
G37*
X146415986Y-90327998D02*
X146257994Y-90328863D01*
X146143653Y-90331205D01*
X146065593Y-90335762D01*
X146016446Y-90343270D01*
X145988841Y-90354466D01*
X145975408Y-90370088D01*
X145968779Y-90390873D01*
X145968135Y-90393563D01*
X145958065Y-90442113D01*
X145939425Y-90537905D01*
X145914155Y-90670743D01*
X145884193Y-90830431D01*
X145851478Y-91006774D01*
X145850336Y-91012967D01*
X145817567Y-91185782D01*
X145786907Y-91338469D01*
X145760336Y-91461871D01*
X145739833Y-91546831D01*
X145727374Y-91584190D01*
X145726780Y-91584852D01*
X145690081Y-91603095D01*
X145614414Y-91633497D01*
X145516122Y-91669493D01*
X145515575Y-91669685D01*
X145391767Y-91716222D01*
X145245804Y-91775504D01*
X145108219Y-91835109D01*
X145101707Y-91838056D01*
X144877610Y-91939765D01*
X144381381Y-91600897D01*
X144229154Y-91497592D01*
X144091259Y-91405237D01*
X143975685Y-91329084D01*
X143890421Y-91274385D01*
X143843456Y-91246393D01*
X143838996Y-91244317D01*
X143804866Y-91253560D01*
X143741119Y-91298156D01*
X143645269Y-91380209D01*
X143514831Y-91501821D01*
X143381672Y-91631205D01*
X143253306Y-91758702D01*
X143138419Y-91875046D01*
X143043927Y-91973052D01*
X142976747Y-92045536D01*
X142943794Y-92085313D01*
X142942568Y-92087361D01*
X142938926Y-92114656D01*
X142952650Y-92159234D01*
X142987131Y-92227112D01*
X143045761Y-92324311D01*
X143131930Y-92456851D01*
X143246800Y-92627476D01*
X143348746Y-92777655D01*
X143439877Y-92912350D01*
X143514927Y-93023740D01*
X143568631Y-93104005D01*
X143595720Y-93145325D01*
X143597426Y-93148130D01*
X143594118Y-93187721D01*
X143569047Y-93264669D01*
X143527202Y-93364432D01*
X143512288Y-93396291D01*
X143447214Y-93538226D01*
X143377788Y-93699273D01*
X143321391Y-93838621D01*
X143280753Y-93942044D01*
X143248474Y-94020642D01*
X143229822Y-94061720D01*
X143227503Y-94064885D01*
X143193197Y-94070128D01*
X143112331Y-94084494D01*
X142995657Y-94105937D01*
X142853925Y-94132413D01*
X142697890Y-94161877D01*
X142538302Y-94192283D01*
X142385915Y-94221588D01*
X142251479Y-94247745D01*
X142145748Y-94268710D01*
X142079474Y-94282439D01*
X142063218Y-94286320D01*
X142046427Y-94295900D01*
X142033751Y-94317536D01*
X142024622Y-94358531D01*
X142018469Y-94426189D01*
X142014720Y-94527812D01*
X142012808Y-94670703D01*
X142012160Y-94862165D01*
X142012126Y-94940645D01*
X142012126Y-95578906D01*
X142165402Y-95609160D01*
X142250678Y-95625564D01*
X142377930Y-95649509D01*
X142531685Y-95678107D01*
X142696466Y-95708467D01*
X142742011Y-95716806D01*
X142894068Y-95746370D01*
X143026532Y-95775442D01*
X143128286Y-95801329D01*
X143188212Y-95821337D01*
X143198195Y-95827301D01*
X143222707Y-95869534D01*
X143257852Y-95951370D01*
X143296827Y-96056683D01*
X143304558Y-96079368D01*
X143355640Y-96220018D01*
X143419046Y-96378714D01*
X143481096Y-96521225D01*
X143481402Y-96521886D01*
X143584733Y-96745440D01*
X142905039Y-97745232D01*
X143341379Y-98182300D01*
X143473351Y-98312381D01*
X143593721Y-98427048D01*
X143695727Y-98520181D01*
X143772609Y-98585658D01*
X143817607Y-98617357D01*
X143824062Y-98619368D01*
X143861960Y-98603529D01*
X143939292Y-98559496D01*
X144047611Y-98492490D01*
X144178468Y-98407734D01*
X144319948Y-98312816D01*
X144463539Y-98215998D01*
X144591565Y-98131751D01*
X144695895Y-98065258D01*
X144768400Y-98021702D01*
X144800842Y-98006264D01*
X144840424Y-98019328D01*
X144915481Y-98053750D01*
X145010532Y-98102380D01*
X145020608Y-98107785D01*
X145148609Y-98171980D01*
X145236382Y-98203463D01*
X145290972Y-98203798D01*
X145319425Y-98174548D01*
X145319590Y-98174138D01*
X145333812Y-98139498D01*
X145367731Y-98057269D01*
X145418716Y-97933814D01*
X145484138Y-97775498D01*
X145561366Y-97588686D01*
X145647771Y-97379742D01*
X145731449Y-97177446D01*
X145823412Y-96954200D01*
X145907850Y-96747392D01*
X145982231Y-96563362D01*
X146044026Y-96408451D01*
X146090703Y-96288996D01*
X146119732Y-96211339D01*
X146128678Y-96182356D01*
X146106244Y-96149110D01*
X146047561Y-96096123D01*
X145969311Y-96037704D01*
X145746466Y-95852952D01*
X145572282Y-95641182D01*
X145448846Y-95406856D01*
X145378246Y-95154434D01*
X145362569Y-94888377D01*
X145373964Y-94765575D01*
X145436050Y-94510793D01*
X145542977Y-94285801D01*
X145688111Y-94092817D01*
X145864822Y-93934061D01*
X146066478Y-93811750D01*
X146286446Y-93728105D01*
X146518094Y-93685344D01*
X146754791Y-93685687D01*
X146989905Y-93731352D01*
X147216804Y-93824559D01*
X147428856Y-93967527D01*
X147517364Y-94048383D01*
X147687111Y-94256007D01*
X147805301Y-94482895D01*
X147872722Y-94722433D01*
X147890160Y-94968007D01*
X147858402Y-95213003D01*
X147778235Y-95450808D01*
X147650445Y-95674807D01*
X147475820Y-95878387D01*
X147280688Y-96037704D01*
X147199409Y-96098602D01*
X147141991Y-96151015D01*
X147121322Y-96182406D01*
X147132144Y-96216639D01*
X147162923Y-96298419D01*
X147211126Y-96421407D01*
X147274222Y-96579263D01*
X147349678Y-96765649D01*
X147434962Y-96974226D01*
X147518781Y-97177496D01*
X147611255Y-97400933D01*
X147696911Y-97607984D01*
X147773118Y-97792286D01*
X147837247Y-97947475D01*
X147886668Y-98067188D01*
X147918752Y-98145061D01*
X147930641Y-98174138D01*
X147958726Y-98203677D01*
X148013051Y-98203591D01*
X148100605Y-98172326D01*
X148228381Y-98108329D01*
X148229392Y-98107785D01*
X148325598Y-98058121D01*
X148403369Y-98021945D01*
X148447223Y-98006408D01*
X148449158Y-98006264D01*
X148482171Y-98022024D01*
X148555054Y-98065850D01*
X148659678Y-98132557D01*
X148787910Y-98216964D01*
X148930052Y-98312816D01*
X149074767Y-98409867D01*
X149205196Y-98494270D01*
X149312890Y-98560801D01*
X149389402Y-98604238D01*
X149425938Y-98619368D01*
X149459582Y-98599482D01*
X149527224Y-98543903D01*
X149622107Y-98458754D01*
X149737470Y-98350153D01*
X149866555Y-98224221D01*
X149908771Y-98182149D01*
X150345261Y-97744931D01*
X150013023Y-97257340D01*
X149912054Y-97107605D01*
X149823438Y-96973220D01*
X149752146Y-96861969D01*
X149703150Y-96781639D01*
X149681422Y-96740014D01*
X149680785Y-96737053D01*
X149692240Y-96697818D01*
X149723051Y-96618895D01*
X149767884Y-96513509D01*
X149799353Y-96442954D01*
X149858192Y-96307876D01*
X149913604Y-96171409D01*
X149956564Y-96056103D01*
X149968234Y-96020977D01*
X150001389Y-95927174D01*
X150033799Y-95854694D01*
X150051601Y-95827301D01*
X150090886Y-95810536D01*
X150176626Y-95786770D01*
X150297697Y-95758697D01*
X150442973Y-95729009D01*
X150507988Y-95716806D01*
X150673087Y-95686468D01*
X150831448Y-95657093D01*
X150967596Y-95631569D01*
X151066057Y-95612785D01*
X151084598Y-95609160D01*
X151237873Y-95578906D01*
X151237873Y-94940645D01*
X151237529Y-94730770D01*
X151236116Y-94571980D01*
X151233064Y-94456973D01*
X151227803Y-94378446D01*
X151219763Y-94329096D01*
X151208373Y-94301619D01*
X151193063Y-94288713D01*
X151186782Y-94286320D01*
X151148896Y-94277833D01*
X151065195Y-94260900D01*
X150946433Y-94237566D01*
X150803361Y-94209875D01*
X150646732Y-94179873D01*
X150487297Y-94149604D01*
X150335809Y-94121115D01*
X150203019Y-94096449D01*
X150099681Y-94077651D01*
X150036545Y-94066767D01*
X150022497Y-94064885D01*
X150009770Y-94039704D01*
X149981600Y-93972622D01*
X149943252Y-93876333D01*
X149928609Y-93838621D01*
X149869548Y-93692921D01*
X149800000Y-93531951D01*
X149737712Y-93396291D01*
X149691879Y-93292561D01*
X149661387Y-93207326D01*
X149651208Y-93155126D01*
X149652831Y-93148130D01*
X149674343Y-93115102D01*
X149723465Y-93041643D01*
X149794923Y-92935577D01*
X149883445Y-92804726D01*
X149983759Y-92656912D01*
X150003594Y-92627734D01*
X150119988Y-92454863D01*
X150205548Y-92323226D01*
X150263684Y-92226761D01*
X150297808Y-92159408D01*
X150311331Y-92115106D01*
X150307664Y-92087794D01*
X150307570Y-92087620D01*
X150278707Y-92051746D01*
X150214867Y-91982391D01*
X150122969Y-91886745D01*
X150009933Y-91771999D01*
X149882679Y-91645341D01*
X149868328Y-91631205D01*
X149707957Y-91475903D01*
X149584195Y-91361870D01*
X149494555Y-91287002D01*
X149436552Y-91249196D01*
X149411004Y-91244317D01*
X149373718Y-91265603D01*
X149296343Y-91314773D01*
X149186867Y-91386575D01*
X149053280Y-91475755D01*
X148903570Y-91577063D01*
X148868618Y-91600897D01*
X148372390Y-91939765D01*
X148148293Y-91838056D01*
X148012011Y-91778783D01*
X147865724Y-91719170D01*
X147739965Y-91671640D01*
X147734425Y-91669685D01*
X147636057Y-91633677D01*
X147560229Y-91603229D01*
X147523282Y-91584905D01*
X147523220Y-91584852D01*
X147511496Y-91551729D01*
X147491568Y-91470267D01*
X147465413Y-91349625D01*
X147435010Y-91198959D01*
X147402337Y-91027428D01*
X147399664Y-91012967D01*
X147366890Y-90836235D01*
X147336802Y-90675810D01*
X147311339Y-90541888D01*
X147292441Y-90444663D01*
X147282047Y-90394332D01*
X147281865Y-90393563D01*
X147275539Y-90372153D01*
X147263239Y-90355988D01*
X147237594Y-90344331D01*
X147191235Y-90336445D01*
X147116792Y-90331593D01*
X147006895Y-90329039D01*
X146854175Y-90328045D01*
X146651262Y-90327874D01*
X146625000Y-90327874D01*
X146415986Y-90327998D01*
M02*
